# xmcd
#
# Track frame offsets: 
#        150
#        14550
#        24825
#        35837
#        46937
#        58887
#        71162
#        82925
#        93900
#        107912
#
# Disc length: 1568 seconds
#
# Revision: 0
# Processed by: cddbd v1.4PL0 Copyright (c) Steve Scherf et al.
# Submitted via: ExactAudioCopy v0.90b3
#
DISCID=80061e0a
DTITLE=George Jones - Showcase On George Jones Vol. 1
DYEAR=1900
DGENRE=Country
TTITLE0=A Good Year For The Roses
TTITLE1=Developing My Pictures
TTITLE2=Tender Tears
TTITLE3=Say It's Not You
TTITLE4=From Here To The Door
TTITLE5=If My Heart Had Windows
TTITLE6=My Favourite Lies
TTITLE7=Accidentally On Purpose
TTITLE8=Where The Grass Won't Grow
TTITLE9=Sweet Dreams
EXTD=
EXTT0=
EXTT1=
EXTT2=
EXTT3=
EXTT4=
EXTT5=
EXTT6=
EXTT7=
EXTT8=
EXTT9=
PLAYORDER=
